<svg xmlns="http://www.w3.org/2000/svg" viewBox="0 0 589.79 127.71"><defs><style>.cls-1{fill:#1d1d1b;stroke:#1d1d1b;stroke-miterlimit:10;}</style></defs><g id="Слой_2" data-name="Слой 2"><g id="Слой_1-2" data-name="Слой 1"><polygon class="cls-1" points="589.29 27.21 589.29 127.21 564.29 127.21 564.29 77.21 504.29 102.21 504.29 127.21 479.29 127.21 479.29 27.21 504.29 27.21 504.29 77.56 564.29 52.56 564.29 27.21 589.29 27.21"/><path class="cls-1" d="M359.59,27.21v100h110v-100Zm85,75h-60v-50h60Z"/><polygon class="cls-1" points="230.2 27.21 230.2 52.21 187.7 52.21 187.7 127.21 162.7 127.21 162.7 52.21 120.2 52.21 120.2 27.21 230.2 27.21"/><path class="cls-1" d="M239.9,27.21v100h25v-25h85v-75Zm85,50h-60v-25h60Z"/><polygon class="cls-1" points="85.5 64.71 85.5 52.21 25.5 52.21 25.5 102.21 85.5 102.21 85.5 89.71 110.5 89.71 110.5 127.21 0.5 127.21 0.5 27.21 110.5 27.21 110.5 64.71 85.5 64.71"/><rect class="cls-1" x="514.29" y="0.5" width="40" height="25"/></g></g></svg>