<svg xmlns="http://www.w3.org/2000/svg" viewBox="0 0 934.97 158.45"><defs><style>.cls-1{fill:#1d1d1b;stroke:#1d1d1b;stroke-miterlimit:10;}.cls-2{fill:#e30613;}</style></defs><g id="Слой_2" data-name="Слой 2"><g id="Слой_1-2" data-name="Слой 1"><path class="cls-1" d="M.5,58V158h25V133h60v25h25V58Zm85,50h-60V83h60Z"/><polygon class="cls-1" points="223.24 57.95 223.24 157.96 198.24 157.96 198.24 118.19 168.24 145.46 138.24 118.19 138.24 157.96 113.24 157.96 113.24 57.95 168.24 107.95 223.24 57.95"/><polygon class="cls-1" points="310.98 95.45 310.98 82.95 250.98 82.95 250.98 132.96 310.98 132.96 310.98 120.45 335.98 120.45 335.98 157.96 225.98 157.96 225.98 57.95 335.98 57.95 335.98 95.45 310.98 95.45"/><polygon class="cls-1" points="934.48 57.95 934.48 157.96 909.48 157.96 909.48 107.95 849.48 132.96 849.48 157.96 824.48 157.96 824.48 57.95 849.48 57.95 849.48 108.31 909.48 83.31 909.48 57.95 934.48 57.95"/><path class="cls-1" d="M704.78,58V158h110V58Zm85,75h-60V83h60Z"/><polygon class="cls-1" points="575.38 57.95 575.38 82.95 532.88 82.95 532.88 157.96 507.88 157.96 507.88 82.95 465.38 82.95 465.38 57.95 575.38 57.95"/><path class="cls-1" d="M585.08,58V158h25V133h85V58Zm85,50h-60V83h60Z"/><polygon class="cls-1" points="430.68 95.45 430.68 82.95 370.68 82.95 370.68 132.96 430.68 132.96 430.68 120.45 455.68 120.45 455.68 157.96 345.68 157.96 345.68 57.95 455.68 57.95 455.68 95.45 430.68 95.45"/><rect class="cls-1" x="859.47" y="31.25" width="40" height="25"/><polygon class="cls-2" points="168.24 95.45 115.74 47.73 168.24 0 220.74 47.73 168.24 95.45"/></g></g></svg>