<?xml version="1.0" encoding="utf-8"?>
<!-- Generator: Adobe Illustrator 26.1.0, SVG Export Plug-In . SVG Version: 6.00 Build 0)  -->
<svg version="1.1" id="Слой_1" xmlns="http://www.w3.org/2000/svg" xmlns:xlink="http://www.w3.org/1999/xlink" x="0px" y="0px"
	 viewBox="0 0 778 252.9" style="enable-background:new 0 0 778 252.9;" xml:space="preserve">
<style type="text/css">
	.st0{fill:#A10509;}
</style>
<g id="Слой_1_00000099661501710454163570000006853272629369257116_">
	<g transform="translate(0.000000,323.000000) scale(0.100000,-0.100000)">
		<path class="st0" d="M6,1316.7c-8-21-8-562,0-592c6-22,10-23,93-20l86,3l5,115l5,115h114h114l81-118l81-119l92,4c51,2,95,7,99,10
			c3,4-39,73-95,153c-56,81-101,153-101,161c0,8,41,75,91,148c53,78,88,139,84,146c-6,9-88,10-177,1c-3-1-40-53-82-116l-76-116
			l-112,3l-113,3l-3,111l-3,112l-31,6c-17,3-56,6-88,6C26,1332.7,11,1328.7,6,1316.7z"/>
		<path class="st0" d="M892,1320.7c-19-19-17-591,2-607c9-8,118-11,382-9l369,3l3,304c2,235-1,306-10,312c-7,5-175,8-373,9
			C994,1332.7,901,1329.7,892,1320.7z M1455,1022.7v-155h-190h-190l-3,135c-1,74,0,145,3,158l5,22l188-2l187-3V1022.7z"/>
		<path class="st0" d="M1778,1325.7c-17-4-18-27-18-308c0-233,3-304,13-307c6-2,48-4,92-4l80,1l2,95c5,155-17,140,198,140h185v-115
			c0-63,3-115,8-116c50-7,170-5,179,3c10,8,13,81,13,308c0,262-2,299-16,304c-20,8-113,8-152,0l-31-6l-3-112l-3-111h-185h-185
			l-5,115l-5,115l-75,1C1829,1328.7,1787,1327.7,1778,1325.7z"/>
		<path class="st0" d="M2662,1325.7l-22-4l2-307l3-307l360-2c198-2,370,0,383,2c22,5,23,8,20,118l-3,112l-97,3l-98,3v-41v-40l-187,2
			l-188,3v155v155h185h185l3-42l3-43h100h99v114v114l-32,5C3340,1331.7,2696,1331.7,2662,1325.7z"/>
		<path class="st0" d="M3513,1325.7c-9-3-13-28-13-74v-68l148-3l147-3l5-235l5-235l92-3l93-3l2,238l3,238l145,3c79,1,147,7,150,11
			c3,5,5,35,5,67c0,53-2,59-25,65C4242,1331.7,3532,1333.7,3513,1325.7z"/>
		<path class="st0" d="M4403,1325.7c-10-4-13-74-13-308v-303l23-6c32-8,140-7,154,2c7,5,13,39,15,87l3,80h185h185l3-80
			c2-44,7-82,12-85c14-8,138-12,161-5c18,6,19,20,19,310c0,271-2,304-16,309C5115,1333.7,4421,1332.7,4403,1325.7z M4958,1105.7
			l3-73h-191h-190v69c0,46,4,71,13,74c6,3,91,5,187,4l175-2L4958,1105.7z"/>
		<path class="st0" d="M5274,1318.7c-2-6-3-146-2-311l3-299l90-1h90l3,118l3,117h189h190v-114v-114l28-6c36-8,136-6,150,3
			c11,7,23,610,12,612c-20,5-149,8-167,4c-21-5-22-11-25-118l-3-112l-187-3l-188-2v115c0,131,14,116-113,120
			C5303,1329.7,5277,1325.7,5274,1318.7z"/>
		<path class="st0" d="M6148,1325.7c-15-4-18-16-18-73v-69l148-3l147-3l5-235l5-235l70-3c125-5,114-28,117,241l3,232l148,3l148,3
			l-3,72l-3,72l-375,2C6334,1330.7,6157,1328.7,6148,1325.7z"/>
		<path class="st0" d="M7040,1325.7c-8-3-18-11-22-17s-8-138-8-293c0-243,2-284,16-297c20-21,156-23,172-3c6,7,12,46,14,87l3,75h185
			h185l3-81c3-94,3-94,104-94c96,0,88-28,88,315v303l-31,6C7710,1334.7,7061,1333.7,7040,1325.7z M7578,1173.7c9-5,12-27,10-72
			l-3-64l-187-3l-188-2v68c0,38,3,72,7,75C7226,1185.7,7563,1183.7,7578,1173.7z"/>
	</g>
</g>
<g id="Слой_2_00000128476420611949726290000017189119487147024005_">
	<path class="st0" d="M363.5,1.5c-4.6,1.6-5,2-5.3,5.2c-0.8,11.9-0.8,11.8-7.8,15.3l-6.5,3.2l-6.2-3.3c-3.5-1.7-7.3-3.2-8.5-3.2
		c-2.8,0-11.2,7.6-11.2,10.2c0,1,1.1,4.1,2.5,6.8c3.2,6.3,3.1,7.6-0.5,13.3c-3.2,5.1-4.3,5.6-14,5.9c-6.5,0.3-6.5,0.3-8.4,4.2
		c-1,2.1-1.9,5.5-2,7.4c-0.1,3.3,0.4,3.9,6.2,8l6.2,4.3v6.8v6.8l-5.2,2.8c-9.6,5.1-10.3,6.8-7,15.5c1.9,4.9,3.5,5.7,11.5,5.9
		c6.3,0.1,7.9,1.1,11.1,6.5c3.3,5.6,3.2,6.2-0.3,11.8c-4.7,7.4-4.7,8.2,0,13.3c2.3,2.5,5.2,4.8,6.3,5.1c1.3,0.3,5-0.8,9.1-2.7
		l6.8-3.1l5.5,2.8c7.2,3.8,8.2,5.5,8.2,13.5v6.7l6.6,2.2c7.5,2.5,10.1,2,13-2.7c4.4-7,6.3-8.3,12.9-8.3c6.9,0,7.9,0.6,12.4,7.2
		c4.1,6.1,5.5,6.8,11.4,5.7c8.5-1.6,10.7-4,10.7-11.9c0-5.7,0.8-6.8,6.1-9.5c6.2-3.2,8.1-3.1,15.2,0.5c6.4,3.2,7.4,3.1,13.1-1.5
		c5.9-4.7,6.1-5.6,2.6-12.5c-1.6-3.2-3-6.7-3-7.7s1.6-3.9,3.5-6.6l3.5-4.7h7.5c8.6,0,10.6-1.3,12.4-7.7c2-7.2,1.6-8-5.4-12.5
		l-6.6-4.2l0.3-7l0.3-7l6.5-3.7c6.3-3.6,6.5-3.8,6.4-7.5c-0.1-9.3-2.4-12.3-9.2-12.5c-8.7-0.2-10.4-1-13.9-6.4
		c-1.8-2.7-3.3-5.5-3.3-6.2s1.6-3.8,3.5-7s3.5-6.3,3.5-6.9s-2.1-3.2-4.7-5.7c-5.4-5.3-7.8-5.8-13.6-2.7c-4.8,2.6-11,2.6-15.3-0.1
		c-4.6-2.8-5.9-5.4-5.6-11.5c0.4-6.9-1.5-8.9-9.5-10.5c-7.1-1.5-8.1-1-13.5,6.9l-3,4.3l-7.6-0.3l-7.7-0.3l-4-6
		c-3.6-5.2-4.6-6-7.6-6.2C370-0.2,366.3,0.5,363.5,1.5z M409.9,28.6c21.1,6.9,37.8,22.9,43.7,41.8c2.4,7.7,2.8,20.7,1,29.3
		c-2.5,11.8-6.8,19.3-16.5,29.1c-7.3,7.3-10.1,9.3-18.1,13.2c-11,5.3-18.8,7-32,6.9c-28.7-0.1-52.3-16.3-62.7-42.8
		c-2.3-6.1-2.7-8.3-2.7-18.4s0.3-12.4,2.7-19c8.4-22.5,24.7-35.8,52.2-42.4C382.6,25.1,403.7,26.6,409.9,28.6z"/>
	<path class="st0" d="M376.4,29.7c-11.9,2.2-25.8,9.7-34.7,18.8c-18.2,18.6-21.1,47.9-7,69.2c18.5,27.8,57.5,36.5,87.9,19.5
		c8.5-4.8,18.9-15.2,23-23c8.9-17,9.4-33.1,1.5-50c-7-15-20.6-26.6-38.1-32.5C401.7,29.2,384.8,28.2,376.4,29.7z M399.9,33.8
		c16.8,2.7,32.8,13.4,41.4,27.8c6.9,11.6,8.8,28.9,4.6,41.3c-8,23.4-30.5,38.8-56.5,38.8c-25.6-0.1-47.1-13.7-55.8-35.5
		c-7.1-17.8-3.1-39.3,10-53.5C358.3,36.9,378.2,30.2,399.9,33.8z"/>
	<path class="st0" d="M381.8,40.2c-0.8,1.7-1.9,2.5-3.7,2.5c-1.4,0.1-4.2,0.9-6.1,1.8c-4,2-3.9,1.3-2.6,19.9
		c0.7,9.8,0.7,11.3-0.7,11.3c-1.9,0-2.4-2.2-3.3-15.8c-0.7-12.3-0.8-12.5-6.3-7.9c-7.3,5.9-14,18.6-14.1,26.4c0,3.3-0.4,4.3-2,4.8
		c-2.6,0.8-4.3,4.1-3.6,7c1.1,4.2,4.3,4.5,50.3,4.5c48.1,0,49.3-0.1,49.3-5.9c0-2.7-2.6-6.1-4.7-6.1c-0.6,0-1.3-2.7-1.6-6.1
		c-0.3-3.5-1.6-8.3-3.2-11.4c-2.4-5.1-11.6-15.5-13.6-15.5c-0.5,0-1.2-0.1-1.6-0.3c-0.5-0.1-1.2,5.6-1.8,12.7
		c-0.7,9.6-1.4,13.1-2.4,13.4c-1.2,0.4-1.3-1.9-0.8-14.5l0.6-15l-3.5-1.6c-1.9-1-4.5-1.7-5.8-1.7c-1.4,0-3-1-4-2.5
		c-1.5-2.2-2.3-2.5-7.6-2.5C383.5,37.7,382.8,37.9,381.8,40.2z"/>
	<path class="st0" d="M346.9,97.9c-1.7,0.6-1.9,1.7-1.9,8.7c0,12.1,1,13.4,13.5,17.6c5.9,2,22.5,4.1,24.8,3.2c1.4-0.5,1.7-2,1.7-7.5
		c0-7.3,1.2-9.7,4.7-9c2.7,0.5,4.3,4.6,4.3,11v5.8h3.3c6.3,0,22.3-2.9,26.9-4.9c8-3.4,8.8-4.8,8.8-15.1c0-6.6-0.4-9.2-1.3-9.6
		C429.6,97.3,349.1,97.1,346.9,97.9z"/>
	<path class="st0" d="M339.6,101.3c-1.3,3.4-0.3,9.4,1.5,9.4c0.5,0,0.9-2.5,0.9-5.5C342,99.9,340.9,98,339.6,101.3z"/>
	<path class="st0" d="M436.7,100.4c-0.9,1.8-0.1,9.7,1.1,10c0.9,0.3,1.2-1.1,1.2-5.1C439,100.4,437.9,98.1,436.7,100.4z"/>
</g>
</svg>
