<?xml version="1.0" encoding="utf-8"?>
<!-- Generator: Adobe Illustrator 26.1.0, SVG Export Plug-In . SVG Version: 6.00 Build 0)  -->
<svg version="1.1" id="Слой_1" xmlns="http://www.w3.org/2000/svg" xmlns:xlink="http://www.w3.org/1999/xlink" x="0px" y="0px"
	 viewBox="0 0 189.4 193.07" style="enable-background:new 0 0 189.4 193.07;" xml:space="preserve">
<style type="text/css">
	.st0{fill:#A10509;}
</style>
<g id="Слой_2_00000085933908518105204740000000987449047013840791_">
	<path class="st0" d="M69.49,1.53c-4.6,1.6-5,2-5.3,5.2c-0.8,11.9-0.8,11.8-7.8,15.3l-6.5,3.2l-6.2-3.3c-3.5-1.7-7.3-3.2-8.5-3.2
		c-2.8,0-11.2,7.6-11.2,10.2c0,1,1.1,4.1,2.5,6.8c3.2,6.3,3.1,7.6-0.5,13.3c-3.2,5.1-4.3,5.6-14,5.9c-6.5,0.3-6.5,0.3-8.4,4.2
		c-1,2.1-1.9,5.5-2,7.4c-0.1,3.3,0.4,3.9,6.2,8l6.2,4.3v6.8v6.8l-5.2,2.8c-9.6,5.1-10.3,6.8-7,15.5c1.9,4.9,3.5,5.7,11.5,5.9
		c6.3,0.1,7.9,1.1,11.1,6.5c3.3,5.6,3.2,6.2-0.3,11.8c-4.7,7.4-4.7,8.2,0,13.3c2.3,2.5,5.2,4.8,6.3,5.1c1.3,0.3,5-0.8,9.1-2.7
		l6.8-3.1l5.5,2.8c7.2,3.8,8.2,5.5,8.2,13.5v6.7l6.6,2.2c7.5,2.5,10.1,2,13-2.7c4.4-7,6.3-8.3,12.9-8.3c6.9,0,7.9,0.6,12.4,7.2
		c4.1,6.1,5.5,6.8,11.4,5.7c8.5-1.6,10.7-4,10.7-11.9c0-5.7,0.8-6.8,6.1-9.5c6.2-3.2,8.1-3.1,15.2,0.5c6.4,3.2,7.4,3.1,13.1-1.5
		c5.9-4.7,6.1-5.6,2.6-12.5c-1.6-3.2-3-6.7-3-7.7s1.6-3.9,3.5-6.6l3.5-4.7h7.5c8.6,0,10.6-1.3,12.4-7.7c2-7.2,1.6-8-5.4-12.5
		l-6.6-4.2l0.3-7l0.3-7l6.5-3.7c6.3-3.6,6.5-3.8,6.4-7.5c-0.1-9.3-2.4-12.3-9.2-12.5c-8.7-0.2-10.4-1-13.9-6.4
		c-1.8-2.7-3.3-5.5-3.3-6.2s1.6-3.8,3.5-7s3.5-6.3,3.5-6.9s-2.1-3.2-4.7-5.7c-5.4-5.3-7.8-5.8-13.6-2.7c-4.8,2.6-11,2.6-15.3-0.1
		c-4.6-2.8-5.9-5.4-5.6-11.5c0.4-6.9-1.5-8.9-9.5-10.5c-7.1-1.5-8.1-1-13.5,6.9l-3,4.3l-7.6-0.3l-7.7-0.3l-4-6
		c-3.6-5.2-4.6-6-7.6-6.2C75.99-0.17,72.29,0.53,69.49,1.53z M115.89,28.63c21.1,6.9,37.8,22.9,43.7,41.8c2.4,7.7,2.8,20.7,1,29.3
		c-2.5,11.8-6.8,19.3-16.5,29.1c-7.3,7.3-10.1,9.3-18.1,13.2c-11,5.3-18.8,7-32,6.9c-28.7-0.1-52.3-16.3-62.7-42.8
		c-2.3-6.1-2.7-8.3-2.7-18.4s0.3-12.4,2.7-19c8.4-22.5,24.7-35.8,52.2-42.4C88.59,25.13,109.69,26.63,115.89,28.63z"/>
	<path class="st0" d="M82.39,29.73c-11.9,2.2-25.8,9.7-34.7,18.8c-18.2,18.6-21.1,47.9-7,69.2c18.5,27.8,57.5,36.5,87.9,19.5
		c8.5-4.8,18.9-15.2,23-23c8.9-17,9.4-33.1,1.5-50c-7-15-20.6-26.6-38.1-32.5C107.69,29.23,90.79,28.23,82.39,29.73z M105.89,33.83
		c16.8,2.7,32.8,13.4,41.4,27.8c6.9,11.6,8.8,28.9,4.6,41.3c-8,23.4-30.5,38.8-56.5,38.8c-25.6-0.1-47.1-13.7-55.8-35.5
		c-7.1-17.8-3.1-39.3,10-53.5C64.29,36.93,84.19,30.23,105.89,33.83z"/>
	<path class="st0" d="M87.79,40.23c-0.8,1.7-1.9,2.5-3.7,2.5c-1.4,0.1-4.2,0.9-6.1,1.8c-4,2-3.9,1.3-2.6,19.9
		c0.7,9.8,0.7,11.3-0.7,11.3c-1.9,0-2.4-2.2-3.3-15.8c-0.7-12.3-0.8-12.5-6.3-7.9c-7.3,5.9-14,18.6-14.1,26.4c0,3.3-0.4,4.3-2,4.8
		c-2.6,0.8-4.3,4.1-3.6,7c1.1,4.2,4.3,4.5,50.3,4.5c48.1,0,49.3-0.1,49.3-5.9c0-2.7-2.6-6.1-4.7-6.1c-0.6,0-1.3-2.7-1.6-6.1
		c-0.3-3.5-1.6-8.3-3.2-11.4c-2.4-5.1-11.6-15.5-13.6-15.5c-0.5,0-1.2-0.1-1.6-0.3c-0.5-0.1-1.2,5.6-1.8,12.7
		c-0.7,9.6-1.4,13.1-2.4,13.4c-1.2,0.4-1.3-1.9-0.8-14.5l0.6-15l-3.5-1.6c-1.9-1-4.5-1.7-5.8-1.7c-1.4,0-3-1-4-2.5
		c-1.5-2.2-2.3-2.5-7.6-2.5C89.49,37.73,88.79,37.93,87.79,40.23z"/>
	<path class="st0" d="M52.89,97.93c-1.7,0.6-1.9,1.7-1.9,8.7c0,12.1,1,13.4,13.5,17.6c5.9,2,22.5,4.1,24.8,3.2
		c1.4-0.5,1.7-2,1.7-7.5c0-7.3,1.2-9.7,4.7-9c2.7,0.5,4.3,4.6,4.3,11v5.8h3.3c6.3,0,22.3-2.9,26.9-4.9c8-3.4,8.8-4.8,8.8-15.1
		c0-6.6-0.4-9.2-1.3-9.6C135.59,97.33,55.09,97.13,52.89,97.93z"/>
	<path class="st0" d="M45.59,101.33c-1.3,3.4-0.3,9.4,1.5,9.4c0.5,0,0.9-2.5,0.9-5.5C47.99,99.93,46.89,98.03,45.59,101.33z"/>
	<path class="st0" d="M142.69,100.43c-0.9,1.8-0.1,9.7,1.1,10c0.9,0.3,1.2-1.1,1.2-5.1C144.99,100.43,143.89,98.13,142.69,100.43z"
		/>
</g>
</svg>
