<?xml version="1.0" encoding="utf-8"?>
<!-- Generator: Adobe Illustrator 26.1.0, SVG Export Plug-In . SVG Version: 6.00 Build 0)  -->
<svg version="1.1" id="Слой_1" xmlns="http://www.w3.org/2000/svg" xmlns:xlink="http://www.w3.org/1999/xlink" x="0px" y="0px"
	 viewBox="0 0 778.02 90.2" style="enable-background:new 0 0 778.02 90.2;" xml:space="preserve">
<style type="text/css">
	.st0{fill:#A10509;}
</style>
<g id="Слой_1_00000099661501710454163570000006853272629369257116_">
	<g transform="translate(0.000000,323.000000) scale(0.100000,-0.100000)">
		<path class="st0" d="M6,2944c-8-21-8-562,0-592c6-22,10-23,93-20l86,3l5,115l5,115h114h114l81-118l81-119l92,4c51,2,95,7,99,10
			c3,4-39,73-95,153c-56,81-101,153-101,161s41,75,91,148c53,78,88,139,84,146c-6,9-88,10-177,1c-3-1-40-53-82-116l-76-116l-112,3
			l-113,3l-3,111l-3,112l-31,6c-17,3-56,6-88,6C26,2960,11,2956,6,2944z"/>
		<path class="st0" d="M892,2948c-19-19-17-591,2-607c9-8,118-11,382-9l369,3l3,304c2,235-1,306-10,312c-7,5-175,8-373,9
			C994,2960,901,2957,892,2948z M1455,2650v-155h-190h-190l-3,135c-1,74,0,145,3,158l5,22l188-2l187-3V2650z"/>
		<path class="st0" d="M1778,2953c-17-4-18-27-18-308c0-233,3-304,13-307c6-2,48-4,92-4l80,1l2,95c5,155-17,140,198,140h185v-115
			c0-63,3-115,8-116c50-7,170-5,179,3c10,8,13,81,13,308c0,262-2,299-16,304c-20,8-113,8-152,0l-31-6l-3-112l-3-111h-185h-185
			l-5,115l-5,115l-75,1C1829,2956,1787,2955,1778,2953z"/>
		<path class="st0" d="M2662,2953l-22-4l2-307l3-307l360-2c198-2,370,0,383,2c22,5,23,8,20,118l-3,112l-97,3l-98,3v-41v-40l-187,2
			l-188,3v155v155h185h185l3-42l3-43h100h99v114v114l-32,5C3340,2959,2696,2959,2662,2953z"/>
		<path class="st0" d="M3513,2953c-9-3-13-28-13-74v-68l148-3l147-3l5-235l5-235l92-3l93-3l2,238l3,238l145,3c79,1,147,7,150,11
			c3,5,5,35,5,67c0,53-2,59-25,65C4242,2959,3532,2961,3513,2953z"/>
		<path class="st0" d="M4403,2953c-10-4-13-74-13-308v-303l23-6c32-8,140-7,154,2c7,5,13,39,15,87l3,80h185h185l3-80
			c2-44,7-82,12-85c14-8,138-12,161-5c18,6,19,20,19,310c0,271-2,304-16,309C5115,2961,4421,2960,4403,2953z M4958,2733l3-73h-191
			h-190v69c0,46,4,71,13,74c6,3,91,5,187,4l175-2L4958,2733z"/>
		<path class="st0" d="M5274,2946c-2-6-3-146-2-311l3-299l90-1h90l3,118l3,117h189h190v-114v-114l28-6c36-8,136-6,150,3
			c11,7,23,610,12,612c-20,5-149,8-167,4c-21-5-22-11-25-118l-3-112l-187-3l-188-2v115c0,131,14,116-113,120
			C5303,2957,5277,2953,5274,2946z"/>
		<path class="st0" d="M6148,2953c-15-4-18-16-18-73v-69l148-3l147-3l5-235l5-235l70-3c125-5,114-28,117,241l3,232l148,3l148,3
			l-3,72l-3,72l-375,2C6334,2958,6157,2956,6148,2953z"/>
		<path class="st0" d="M7040,2953c-8-3-18-11-22-17s-8-138-8-293c0-243,2-284,16-297c20-21,156-23,172-3c6,7,12,46,14,87l3,75h185
			h185l3-81c3-94,3-94,104-94c96,0,88-28,88,315v303l-31,6C7710,2962,7061,2961,7040,2953z M7578,2801c9-5,12-27,10-72l-3-64l-187-3
			l-188-2v68c0,38,3,72,7,75C7226,2813,7563,2811,7578,2801z"/>
	</g>
</g>
</svg>
